<svg width="38" height="26" viewBox="0 0 38 26" fill="none" xmlns="http://www.w3.org/2000/svg">
<path d="M13.0793 25.7527C12.788 25.7527 12.5169 25.7062 12.266 25.6132C12.015 25.5203 11.7765 25.3607 11.5503 25.1345L1.46072 15.045C1.11062 14.6949 0.941759 14.2643 0.954124 13.7531C0.96653 13.2419 1.14778 12.8112 1.49787 12.4611C1.84797 12.111 2.27244 11.9359 2.77128 11.9359C3.27008 11.9359 3.69452 12.111 4.04462 12.4611L13.0793 21.4957L33.9556 0.61944C34.3057 0.269305 34.7363 0.0942383 35.2475 0.0942383C35.7587 0.0942383 36.1894 0.269305 36.5395 0.61944C36.8896 0.969534 37.0646 1.40018 37.0646 1.91139C37.0646 2.42259 36.8896 2.85325 36.5395 3.20334L14.6082 25.1345C14.3821 25.3607 14.1435 25.5203 13.8925 25.6132C13.6416 25.7062 13.3705 25.7527 13.0793 25.7527Z" fill="white"/>
</svg>
