<svg width="14" height="10" viewBox="0 0 14 10" fill="none" xmlns="http://www.w3.org/2000/svg">
<path d="M6.99998 2.03483C9.21081 2.03483 11.1825 3.27733 12.145 5.24316C11.1825 7.209 9.21665 8.4515 6.99998 8.4515C4.78331 8.4515 2.81748 7.209 1.85498 5.24316C2.81748 3.27733 4.78915 2.03483 6.99998 2.03483ZM6.99998 0.868164C4.08331 0.868164 1.59248 2.68233 0.583313 5.24316C1.59248 7.804 4.08331 9.61816 6.99998 9.61816C9.91665 9.61816 12.4075 7.804 13.4166 5.24316C12.4075 2.68233 9.91665 0.868164 6.99998 0.868164ZM6.99998 3.78483C7.80498 3.78483 8.45831 4.43816 8.45831 5.24316C8.45831 6.04816 7.80498 6.7015 6.99998 6.7015C6.19498 6.7015 5.54165 6.04816 5.54165 5.24316C5.54165 4.43816 6.19498 3.78483 6.99998 3.78483ZM6.99998 2.61816C5.55331 2.61816 4.37498 3.7965 4.37498 5.24316C4.37498 6.68983 5.55331 7.86816 6.99998 7.86816C8.44665 7.86816 9.62498 6.68983 9.62498 5.24316C9.62498 3.7965 8.44665 2.61816 6.99998 2.61816Z" fill="black"/>
</svg>
