<svg width="15" height="14" viewBox="0 0 15 14" fill="none" xmlns="http://www.w3.org/2000/svg">
<path d="M12.8335 1.90975V9.90975H4.8335V1.90975H12.8335ZM12.8335 0.576416H4.8335C4.10016 0.576416 3.50016 1.17642 3.50016 1.90975V9.90975C3.50016 10.6431 4.10016 11.2431 4.8335 11.2431H12.8335C13.5668 11.2431 14.1668 10.6431 14.1668 9.90975V1.90975C14.1668 1.17642 13.5668 0.576416 12.8335 0.576416ZM7.16683 7.02308L8.2935 8.52975L9.94683 6.46308L12.1668 9.24308H5.50016L7.16683 7.02308ZM0.833496 3.24308V12.5764C0.833496 13.3097 1.4335 13.9097 2.16683 13.9097H11.5002V12.5764H2.16683V3.24308H0.833496Z" fill="white"/>
</svg>
