<svg width="13" height="12" viewBox="0 0 13 12" fill="none" xmlns="http://www.w3.org/2000/svg">
<path d="M6.49995 0C6.13329 0 5.83329 0.3 5.83329 0.666667V6C5.83329 6.36667 6.13329 6.66667 6.49995 6.66667C6.86662 6.66667 7.16662 6.36667 7.16662 6V0.666667C7.16662 0.3 6.86662 0 6.49995 0ZM9.92662 1.90667C9.66662 2.16667 9.67329 2.57333 9.91995 2.83333C10.6733 3.63333 11.14 4.7 11.1666 5.88C11.2266 8.43333 9.11329 10.6333 6.55995 10.66C3.95329 10.7 1.83329 8.6 1.83329 6C1.83329 4.77333 2.30662 3.66 3.07995 2.82667C3.32662 2.56667 3.32662 2.16 3.07329 1.90667C2.80662 1.64 2.37329 1.64667 2.11995 1.92C1.15329 2.94667 0.54662 4.31333 0.499954 5.82667C0.40662 9.08 3.05329 11.8933 6.30662 11.9933C9.70662 12.1 12.5 9.37333 12.5 5.99333C12.5 4.41333 11.8866 2.98667 10.8866 1.92C10.6333 1.64667 10.1933 1.64 9.92662 1.90667Z" fill="#323232"/>
</svg>
