<svg width="16" height="16" viewBox="0 0 14 14" fill="none" xmlns="http://www.w3.org/2000/svg">
<path d="M7 0.333252C3.32 0.333252 0.333336 3.31992 0.333336 6.99992C0.333336 10.6799 3.32 13.6666 7 13.6666C10.68 13.6666 13.6667 10.6799 13.6667 6.99992C13.6667 3.31992 10.68 0.333252 7 0.333252ZM3.71334 11.1866C4 10.5866 5.74667 9.99992 7 9.99992C8.25334 9.99992 10.0067 10.5866 10.2867 11.1866C9.38 11.9066 8.24 12.3333 7 12.3333C5.76 12.3333 4.62 11.9066 3.71334 11.1866ZM11.24 10.2199C10.2867 9.05992 7.97334 8.66658 7 8.66658C6.02667 8.66658 3.71334 9.05992 2.76 10.2199C2.08 9.32658 1.66667 8.21325 1.66667 6.99992C1.66667 4.05992 4.06 1.66659 7 1.66659C9.94 1.66659 12.3333 4.05992 12.3333 6.99992C12.3333 8.21325 11.92 9.32658 11.24 10.2199ZM7 2.99992C5.70667 2.99992 4.66667 4.03992 4.66667 5.33325C4.66667 6.62659 5.70667 7.66658 7 7.66658C8.29334 7.66658 9.33333 6.62659 9.33333 5.33325C9.33333 4.03992 8.29334 2.99992 7 2.99992ZM7 6.33325C6.44667 6.33325 6 5.88658 6 5.33325C6 4.77992 6.44667 4.33325 7 4.33325C7.55334 4.33325 8 4.77992 8 5.33325C8 5.88658 7.55334 6.33325 7 6.33325Z" fill="white"/>
</svg>
