<svg width="38" height="38" viewBox="0 0 38 38" fill="none" xmlns="http://www.w3.org/2000/svg">
<path d="M19.0932 37.1249C14.0333 37.1249 9.74751 35.3694 6.23581 31.8584C2.72411 28.3474 0.968262 24.0625 0.968262 19.0036C0.968262 13.9448 2.72411 9.65864 6.23581 6.14521C9.74751 2.63174 14.0333 0.875 19.0932 0.875C21.9188 0.875 24.5927 1.50319 27.1147 2.75958C29.6367 4.01592 31.7342 5.78893 33.4072 8.0786V2.6875C33.4072 2.17396 33.581 1.74349 33.9286 1.39609C34.2761 1.0487 34.7068 0.875 35.2205 0.875C35.7343 0.875 36.1647 1.0487 36.5117 1.39609C36.8587 1.74349 37.0322 2.17396 37.0322 2.6875V13.4695C37.0322 14.0883 36.8229 14.6071 36.4042 15.0257C35.9856 15.4444 35.4668 15.6537 34.8479 15.6537H24.0659C23.5524 15.6537 23.122 15.4799 22.7746 15.1324C22.4272 14.7849 22.2535 14.3542 22.2535 13.8405C22.2535 13.3267 22.4272 12.8963 22.7746 12.5493C23.122 12.2023 23.5524 12.0288 24.0659 12.0288H31.7992C30.5259 9.69582 28.7598 7.85774 26.5012 6.5146C24.2425 5.17149 21.7732 4.49994 19.0932 4.49994C15.0654 4.49994 11.6418 5.90966 8.82237 8.72911C6.00292 11.5486 4.5932 14.9722 4.5932 18.9999C4.5932 23.0277 6.00292 26.4513 8.82237 29.2708C11.6418 32.0902 15.0654 33.4999 19.0932 33.4999C21.9019 33.4999 24.4732 32.7625 26.8069 31.2877C29.1406 29.813 30.9085 27.8455 32.1106 25.3855C32.3399 24.9455 32.6769 24.638 33.1215 24.463C33.5661 24.2879 34.0192 24.2779 34.481 24.4328C34.9735 24.5877 35.3181 24.9099 35.5148 25.3994C35.7116 25.8889 35.6953 26.3537 35.466 26.7936C33.9696 29.9229 31.7605 32.4271 28.8387 34.3062C25.917 36.1853 22.6685 37.1249 19.0932 37.1249Z" fill="#667085"/>
</svg>
