<svg width="46" height="35" viewBox="0 0 46 35" fill="none" xmlns="http://www.w3.org/2000/svg">
<g filter="url(#filter0_d_4668_219148)">
<rect x="2" y="1.9317" width="42" height="30" rx="6" fill="#1E1E1E"/>
<g clip-path="url(#clip0_4668_219148)">
<path d="M18.1918 23.9318L32.0064 17.6984C32.6477 17.4068 32.6477 16.4568 32.0064 16.1651L18.1918 9.93176C17.6693 9.69009 17.0914 10.0984 17.0914 10.6901L17.0835 14.5318C17.0835 14.9484 17.3764 15.3068 17.7722 15.3568L28.9585 16.9318L17.7722 18.4984C17.3764 18.5568 17.0835 18.9151 17.0835 19.3318L17.0914 23.1734C17.0914 23.7651 17.6693 24.1734 18.1918 23.9318Z" fill="white"/>
</g>
<rect x="2.5" y="2.4317" width="41" height="29" rx="5.5" stroke="#1E1E1E"/>
</g>
<defs>
<filter id="filter0_d_4668_219148" x="0" y="0.931702" width="46" height="34" filterUnits="userSpaceOnUse" color-interpolation-filters="sRGB">
<feFlood flood-opacity="0" result="BackgroundImageFix"/>
<feColorMatrix in="SourceAlpha" type="matrix" values="0 0 0 0 0 0 0 0 0 0 0 0 0 0 0 0 0 0 127 0" result="hardAlpha"/>
<feOffset dy="1"/>
<feGaussianBlur stdDeviation="1"/>
<feColorMatrix type="matrix" values="0 0 0 0 0.0627451 0 0 0 0 0.0941176 0 0 0 0 0.156863 0 0 0 0.05 0"/>
<feBlend mode="normal" in2="BackgroundImageFix" result="effect1_dropShadow_4668_219148"/>
<feBlend mode="normal" in="SourceGraphic" in2="effect1_dropShadow_4668_219148" result="shape"/>
</filter>
<clipPath id="clip0_4668_219148">
<rect width="19" height="20" fill="white" transform="translate(13.5 6.9317)"/>
</clipPath>
</defs>
</svg>
