<svg width="18" height="21" viewBox="0 0 18 21" fill="none" xmlns="http://www.w3.org/2000/svg">
<path d="M14.8541 14.8232C14.1341 14.8232 13.4899 15.1232 12.9972 15.5932L6.2425 11.4432C6.28987 11.2132 6.32776 10.9832 6.32776 10.7432C6.32776 10.5032 6.28987 10.2732 6.2425 10.0432L12.9214 5.93316C13.433 6.43316 14.1057 6.74316 14.8541 6.74316C16.4267 6.74316 17.6962 5.40316 17.6962 3.74316C17.6962 2.08316 16.4267 0.743164 14.8541 0.743164C13.2814 0.743164 12.012 2.08316 12.012 3.74316C12.012 3.98316 12.0499 4.21316 12.0972 4.44316L5.41829 8.55316C4.90671 8.05316 4.23408 7.74316 3.48566 7.74316C1.91303 7.74316 0.643555 9.08316 0.643555 10.7432C0.643555 12.4032 1.91303 13.7432 3.48566 13.7432C4.23408 13.7432 4.90671 13.4332 5.41829 12.9332L12.1636 17.0932C12.1162 17.3032 12.0878 17.5232 12.0878 17.7432C12.0878 19.3532 13.3288 20.6632 14.8541 20.6632C16.3793 20.6632 17.6204 19.3532 17.6204 17.7432C17.6204 16.1332 16.3793 14.8232 14.8541 14.8232ZM14.8541 2.74316C15.3751 2.74316 15.8014 3.19316 15.8014 3.74316C15.8014 4.29316 15.3751 4.74316 14.8541 4.74316C14.333 4.74316 13.9067 4.29316 13.9067 3.74316C13.9067 3.19316 14.333 2.74316 14.8541 2.74316ZM3.48566 11.7432C2.96461 11.7432 2.53829 11.2932 2.53829 10.7432C2.53829 10.1932 2.96461 9.74316 3.48566 9.74316C4.00671 9.74316 4.43303 10.1932 4.43303 10.7432C4.43303 11.2932 4.00671 11.7432 3.48566 11.7432ZM14.8541 18.7632C14.333 18.7632 13.9067 18.3132 13.9067 17.7632C13.9067 17.2132 14.333 16.7632 14.8541 16.7632C15.3751 16.7632 15.8014 17.2132 15.8014 17.7632C15.8014 18.3132 15.3751 18.7632 14.8541 18.7632Z" fill="black"/>
</svg>
