<svg width="48" height="48" viewBox="0 0 48 48" fill="none" xmlns="http://www.w3.org/2000/svg">
<g id="react-icons/bs/BsCheckCircle">
<path id="Vector" d="M24 45C18.4305 45 13.089 42.7875 9.15076 38.8492C5.21249 34.911 3 29.5695 3 24C3 18.4305 5.21249 13.089 9.15076 9.15076C13.089 5.21249 18.4305 3 24 3C29.5695 3 34.911 5.21249 38.8492 9.15076C42.7875 13.089 45 18.4305 45 24C45 29.5695 42.7875 34.911 38.8492 38.8492C34.911 42.7875 29.5695 45 24 45ZM24 48C30.3652 48 36.4697 45.4714 40.9706 40.9706C45.4714 36.4697 48 30.3652 48 24C48 17.6348 45.4714 11.5303 40.9706 7.02944C36.4697 2.52856 30.3652 0 24 0C17.6348 0 11.5303 2.52856 7.02944 7.02944C2.52856 11.5303 0 17.6348 0 24C0 30.3652 2.52856 36.4697 7.02944 40.9706C11.5303 45.4714 17.6348 48 24 48Z" fill="#03C04A"/>
<path id="Vector_2" d="M32.91 14.91C32.8886 14.9307 32.8686 14.9527 32.85 14.976L22.431 28.251L16.152 21.969C15.7255 21.5715 15.1613 21.3552 14.5784 21.3655C13.9955 21.3757 13.4394 21.6119 13.0271 22.0241C12.6149 22.4364 12.3788 22.9925 12.3685 23.5754C12.3582 24.1583 12.5746 24.7225 12.972 25.149L20.91 33.09C21.1238 33.3034 21.3785 33.4716 21.6588 33.5845C21.939 33.6975 22.2391 33.7528 22.5412 33.7472C22.8433 33.7416 23.1412 33.6752 23.4171 33.552C23.693 33.4287 23.9412 33.2512 24.147 33.03L36.123 18.06C36.5308 17.632 36.7537 17.0607 36.7437 16.4696C36.7336 15.8785 36.4913 15.3151 36.0692 14.9013C35.647 14.4874 35.079 14.2563 34.4878 14.2579C33.8966 14.2596 33.3299 14.4938 32.91 14.91Z" fill="#03C04A"/>
</g>
</svg>
