<svg width="48" height="48" viewBox="0 0 48 48" fill="none" xmlns="http://www.w3.org/2000/svg">
<g id="react-icons/bs/BsExclamationCircle">
<path id="Vector" d="M24 45C18.4305 45 13.089 42.7875 9.15076 38.8492C5.21249 34.911 3 29.5695 3 24C3 18.4305 5.21249 13.089 9.15076 9.15076C13.089 5.21249 18.4305 3 24 3C29.5695 3 34.911 5.21249 38.8492 9.15076C42.7875 13.089 45 18.4305 45 24C45 29.5695 42.7875 34.911 38.8492 38.8492C34.911 42.7875 29.5695 45 24 45ZM24 48C30.3652 48 36.4697 45.4714 40.9706 40.9706C45.4714 36.4697 48 30.3652 48 24C48 17.6348 45.4714 11.5303 40.9706 7.02944C36.4697 2.52856 30.3652 0 24 0C17.6348 0 11.5303 2.52856 7.02944 7.02944C2.52856 11.5303 0 17.6348 0 24C0 30.3652 2.52856 36.4697 7.02944 40.9706C11.5303 45.4714 17.6348 48 24 48Z" fill="#EA8700"/>
<path id="Vector_2" d="M21.006 33C21.006 32.606 21.0836 32.2159 21.2344 31.8519C21.3851 31.488 21.6061 31.1572 21.8847 30.8787C22.1633 30.6001 22.494 30.3791 22.858 30.2283C23.2219 30.0776 23.612 30 24.006 30C24.4 30 24.7901 30.0776 25.1541 30.2283C25.518 30.3791 25.8487 30.6001 26.1273 30.8787C26.4059 31.1572 26.6269 31.488 26.7776 31.8519C26.9284 32.2159 27.006 32.606 27.006 33C27.006 33.7956 26.6899 34.5587 26.1273 35.1213C25.5647 35.6839 24.8017 36 24.006 36C23.2104 36 22.4473 35.6839 21.8847 35.1213C21.3221 34.5587 21.006 33.7956 21.006 33ZM21.3 14.985C21.2601 14.6065 21.3001 14.2239 21.4176 13.8619C21.5351 13.4999 21.7274 13.1666 21.982 12.8837C22.2366 12.6009 22.5478 12.3747 22.8954 12.2198C23.2431 12.065 23.6194 11.985 24 11.985C24.3806 11.985 24.7569 12.065 25.1046 12.2198C25.4522 12.3747 25.7634 12.6009 26.018 12.8837C26.2726 13.1666 26.4649 13.4999 26.5824 13.8619C26.6999 14.2239 26.74 14.6065 26.7 14.985L25.65 25.506C25.6147 25.9193 25.4256 26.3043 25.1201 26.5849C24.8145 26.8655 24.4148 27.0211 24 27.0211C23.5852 27.0211 23.1855 26.8655 22.8799 26.5849C22.5744 26.3043 22.3853 25.9193 22.35 25.506L21.3 14.985Z" fill="#EA8700"/>
</g>
</svg>
