<svg width="17" height="16" viewBox="0 0 17 16" fill="none" xmlns="http://www.w3.org/2000/svg">
<mask id="mask0_6780_43652" style="mask-type:alpha" maskUnits="userSpaceOnUse" x="0" y="0" width="17" height="16">
<rect x="0.5" width="16" height="16" fill="#D9D9D9"/>
</mask>
<g mask="url(#mask0_6780_43652)">
<path d="M8.49982 14.6088C7.85543 14.6088 7.3108 14.3863 6.86593 13.9414C6.42107 13.4965 6.19863 12.9519 6.19863 12.3075C6.19863 11.7554 6.36872 11.2727 6.70888 10.8594C7.04906 10.4462 7.4794 10.181 7.99992 10.0639V8.4998H5.37172C5.0403 8.4998 4.7566 8.3818 4.5206 8.1458C4.28459 7.9098 4.16658 7.6261 4.16658 7.29469V5.96777H3.13453C2.96381 5.96777 2.8207 5.91002 2.70522 5.79453C2.58973 5.67903 2.53198 5.53592 2.53198 5.3652V2.30367C2.53198 2.13018 2.58973 1.98596 2.70522 1.871C2.8207 1.75605 2.96381 1.69857 3.13453 1.69857H6.19608C6.36957 1.69857 6.51379 1.75631 6.62875 1.8718C6.7437 1.98729 6.80118 2.1304 6.80118 2.30112V5.36267C6.80118 5.53616 6.74344 5.68038 6.62795 5.79534C6.51245 5.91029 6.36934 5.96777 6.19862 5.96777H5.16657V7.29469C5.16657 7.35452 5.1858 7.40367 5.22427 7.44213C5.26273 7.4806 5.31188 7.49984 5.37172 7.49984H11.6281C11.6879 7.49984 11.7371 7.4806 11.7755 7.44213C11.814 7.40367 11.8332 7.35452 11.8332 7.29469V5.91007C11.3127 5.79298 10.8824 5.52781 10.5422 5.11457C10.202 4.70132 10.0319 4.21863 10.0319 3.6665C10.0319 3.02215 10.2544 2.47751 10.6993 2.0326C11.1443 1.58769 11.6889 1.36523 12.3333 1.36523C12.9777 1.36523 13.5223 1.58769 13.9672 2.0326C14.412 2.47751 14.6345 3.02215 14.6345 3.6665C14.6345 4.21863 14.4644 4.70132 14.1242 5.11457C13.7841 5.52781 13.3537 5.79298 12.8332 5.91007V7.29469C12.8332 7.6261 12.7152 7.9098 12.4792 8.1458C12.2432 8.3818 11.9595 8.4998 11.6281 8.4998H8.99988V10.0639C9.52039 10.181 9.95074 10.4462 10.2909 10.8594C10.6311 11.2727 10.8012 11.7554 10.8012 12.3075C10.8012 12.9519 10.5787 13.4965 10.1338 13.9414C9.68884 14.3863 9.14419 14.6088 8.49982 14.6088ZM12.3346 4.96778C12.6944 4.96778 13.001 4.84062 13.2544 4.5863C13.5078 4.33197 13.6345 4.02491 13.6345 3.66513C13.6345 3.30536 13.5073 2.99876 13.253 2.74533C12.9987 2.49191 12.6916 2.3652 12.3319 2.3652C11.9721 2.3652 11.6655 2.49237 11.4121 2.7467C11.1586 3.00102 11.0319 3.30807 11.0319 3.66785C11.0319 4.02764 11.1591 4.33424 11.4134 4.58765C11.6677 4.84107 11.9748 4.96778 12.3346 4.96778ZM3.53195 4.96778H5.8012V2.69853H3.53195V4.96778ZM8.50127 13.6088C8.86104 13.6088 9.16764 13.4816 9.42107 13.2273C9.67449 12.973 9.8012 12.6659 9.8012 12.3061C9.8012 11.9464 9.67403 11.6398 9.4197 11.3863C9.16538 11.1329 8.85832 11.0062 8.49853 11.0062C8.13875 11.0062 7.83215 11.1334 7.57873 11.3877C7.32531 11.642 7.1986 11.9491 7.1986 12.3089C7.1986 12.6686 7.32577 12.9752 7.5801 13.2287C7.83442 13.4821 8.14148 13.6088 8.50127 13.6088Z" fill="black"/>
</g>
</svg>
