<svg width="16" height="16" viewBox="0 0 14 14" fill="none" xmlns="http://www.w3.org/2000/svg">
<path d="M6.99334 0.333252C3.31334 0.333252 0.333336 3.31992 0.333336 6.99992C0.333336 10.6799 3.31334 13.6666 6.99334 13.6666C10.68 13.6666 13.6667 10.6799 13.6667 6.99992C13.6667 3.31992 10.68 0.333252 6.99334 0.333252ZM7 12.3333C4.05334 12.3333 1.66667 9.94658 1.66667 6.99992C1.66667 4.05325 4.05334 1.66659 7 1.66659C9.94667 1.66659 12.3333 4.05325 12.3333 6.99992C12.3333 9.94658 9.94667 12.3333 7 12.3333ZM7.33334 3.66658H6.33334V7.66658L9.83333 9.76658L10.3333 8.94658L7.33334 7.16658V3.66658Z" fill="black"/>
</svg>
