<svg width="18" height="18" viewBox="0 0 16 16" fill="none" xmlns="http://www.w3.org/2000/svg">
<path d="M12.8335 1.66665V9.66665H4.8335V1.66665H12.8335ZM12.8335 0.333313H4.8335C4.10016 0.333313 3.50016 0.933313 3.50016 1.66665V9.66665C3.50016 10.4 4.10016 11 4.8335 11H12.8335C13.5668 11 14.1668 10.4 14.1668 9.66665V1.66665C14.1668 0.933313 13.5668 0.333313 12.8335 0.333313ZM7.16683 6.77998L8.2935 8.28665L9.94683 6.21998L12.1668 8.99998H5.50016L7.16683 6.77998ZM0.833496 2.99998V12.3333C0.833496 13.0666 1.4335 13.6666 2.16683 13.6666H11.5002V12.3333H2.16683V2.99998H0.833496Z" fill="#323232"/>
</svg>
