<svg width="12" height="12" viewBox="0 0 12 12" fill="none" xmlns="http://www.w3.org/2000/svg">
<path d="M5.41675 3.08329H6.58342V4.24996H5.41675V3.08329ZM5.41675 5.41663H6.58342V8.91663H5.41675V5.41663ZM6.00008 0.166626C2.78008 0.166626 0.166748 2.77996 0.166748 5.99996C0.166748 9.21996 2.78008 11.8333 6.00008 11.8333C9.22008 11.8333 11.8334 9.21996 11.8334 5.99996C11.8334 2.77996 9.22008 0.166626 6.00008 0.166626ZM6.00008 10.6666C3.42758 10.6666 1.33341 8.57246 1.33341 5.99996C1.33341 3.42746 3.42758 1.33329 6.00008 1.33329C8.57258 1.33329 10.6667 3.42746 10.6667 5.99996C10.6667 8.57246 8.57258 10.6666 6.00008 10.6666Z" fill="#C0C0C0"/>
</svg>
