<?xml version="1.0" encoding="UTF-8"?><svg id="Layer_1" xmlns="http://www.w3.org/2000/svg" xmlns:xlink="http://www.w3.org/1999/xlink" viewBox="0 0 1920 474"><defs><style>.cls-1{fill:url(#linear-gradient);}.cls-2{fill:url(#linear-gradient-8);}.cls-3{fill:url(#linear-gradient-9);}.cls-4{fill:url(#linear-gradient-3);}.cls-5{fill:url(#linear-gradient-4);}.cls-6{fill:url(#linear-gradient-2);}.cls-7{fill:url(#linear-gradient-6);}.cls-8{fill:url(#linear-gradient-7);}.cls-9{fill:url(#linear-gradient-5);}.cls-10{fill:url(#linear-gradient-12);}.cls-11{fill:url(#linear-gradient-10);}.cls-12{fill:url(#linear-gradient-11);}</style><linearGradient id="linear-gradient" x1="292.8" y1="150.35" x2="292.8" y2="387.91" gradientUnits="userSpaceOnUse"><stop offset="0" stop-color="#7f7f7f"/><stop offset="1" stop-color="#333"/></linearGradient><linearGradient id="linear-gradient-2" x1="436.6" y1="150.35" x2="436.6" y2="387.91" xlink:href="#linear-gradient"/><linearGradient id="linear-gradient-3" x1="605.26" y1="150.35" x2="605.26" y2="387.91" xlink:href="#linear-gradient"/><linearGradient id="linear-gradient-4" x1="1578.66" y1="150.35" x2="1578.66" y2="387.91" xlink:href="#linear-gradient"/><linearGradient id="linear-gradient-5" x1="1699.73" y1="150.35" x2="1699.73" y2="387.91" xlink:href="#linear-gradient"/><linearGradient id="linear-gradient-6" x1="870.44" y1="120.46" x2="870.44" y2="337.32" gradientUnits="userSpaceOnUse"><stop offset="0" stop-color="#e93648"/><stop offset="1" stop-color="#aa0021"/></linearGradient><linearGradient id="linear-gradient-7" x1="1137.77" y1="150.29" x2="1137.77" y2="387.85" xlink:href="#linear-gradient"/><linearGradient id="linear-gradient-8" x1="1321.24" y1="150.29" x2="1321.24" y2="387.85" xlink:href="#linear-gradient"/><linearGradient id="linear-gradient-9" x1="836.26" y1="201.7" x2="836.26" y2="265.69" xlink:href="#linear-gradient-6"/><linearGradient id="linear-gradient-10" x1="836.57" y1="201.7" x2="836.57" y2="265.69" xlink:href="#linear-gradient-6"/><linearGradient id="linear-gradient-11" x1="836.57" y1="201.7" x2="836.57" y2="265.69" xlink:href="#linear-gradient-6"/><linearGradient id="linear-gradient-12" x1="921.22" y1="201.7" x2="921.22" y2="265.69" xlink:href="#linear-gradient-6"/></defs><path class="cls-1" d="m381.08,148.25v31.5h-72.53v145.06h-31.5v-145.06h-72.53v-31.5h176.56Z"/><path class="cls-6" d="m526.61,324.76h-35.35l-16.16-31.58-38.5-75.64-38.5,75.64-16.16,31.58h-35.35l16.05-31.58,73.96-145.08,73.96,145.08,16.05,31.58Z"/><path class="cls-4" d="m548.4,236.42c0,31.37,25.49,56.86,56.86,56.86h56.83v-33.84h-56.83v-31.5h88.33v96.82h-88.33c-48.78,0-88.33-39.55-88.33-88.33s39.55-88.33,88.33-88.33h88.33v31.47h-88.33c-31.37,0-56.86,25.49-56.86,56.86Z"/><path class="cls-5" d="m1668.67,324.76h-35.35l-16.16-31.58-38.5-75.64-38.5,75.64-16.16,31.58h-35.35l16.05-31.58,73.96-145.08,73.96,145.08,16.05,31.58Z"/><path class="cls-9" d="m1683.98,324.7v-176.56h31.5v176.56h-31.5Z"/><path class="cls-7" d="m963.71,126.31h-134.91c-4.67-8.76-13.9-14.74-24.5-14.74-15.3,0-27.74,12.44-27.74,27.74s12.44,27.74,27.74,27.74c11.77,0,21.85-7.37,25.87-17.74h133.53c20.21,0,36.6,16.39,36.6,36.6v85.98c0,20.01-16.23,36.31-36.22,36.42-6.46.04-11.7,5.22-11.7,11.68l-2,27.37c0,.17-.21.25-.32.11l-30.36-34.91c-2.18-2.69-5.47-4.26-8.93-4.26h-117.87c-20.21,0-36.6-16.39-36.6-36.6v-60.94c9.84-4.27,16.74-14.07,16.74-25.46,0-15.3-12.44-27.74-27.74-27.74s-27.74,12.44-27.74,27.74c0,11,6.44,20.52,15.74,25.01v61.39c0,32.92,26.68,59.6,59.6,59.6h112.3c.05,0,.11.02.14.07l47.61,56.18c2.23,2.75,5.53,4.26,8.94,4.26,1.93,0,3.88-.49,5.69-1.51,3.69-2.09,5.81-6.16,5.81-10.4l2-49.57c0-.09.06-.16.14-.18,27.21-5.43,47.77-29.49,47.77-58.27v-85.98c0-32.92-26.68-59.6-59.6-59.6Zm-159.4,24.5c-2.06,0-3.99-.55-5.67-1.5-3.48-1.98-5.83-5.71-5.83-10,0-6.35,5.15-11.5,11.5-11.5s11.5,5.15,11.5,11.5c0,4.29-2.35,8.02-5.83,10-1.67.95-3.6,1.5-5.67,1.5Zm-59,23c6.35,0,11.5,5.15,11.5,11.5,0,1.17-.18,2.29-.5,3.35-1.44,4.71-5.82,8.15-11,8.15-6.21,0-11.26-4.93-11.48-11.08,0-.14-.02-.28-.02-.42,0-6.35,5.15-11.5,11.5-11.5Z"/><path class="cls-8" d="m1218.07,238.43c4.51-6.6,6.7-17.59,6.7-33.61,0-21.04-4.32-35.12-13.2-43.05-8.66-7.73-21.97-11.48-40.7-11.48h-120.1v174.52h30.32v-65.22h88.32c11.37,0,16.3,2.24,18.44,4.12,1.3,1.14,4.31,5.24,4.31,18.65v42.45h30.11v-50.42c0-12.14-2.91-20.56-8.9-25.73-1.12-.97-2.35-1.87-3.68-2.7,3.6-2.1,6.39-4.6,8.39-7.53Zm-136.98-58.32h86.24c12.85,0,18.79,2.38,21.51,4.37,1.87,1.37,5,5.68,5,19.12,0,14.68-3.16,19.79-5.05,21.53-2.41,2.22-8.01,4.87-21.04,4.87h-86.65v-49.89Z"/><path class="cls-2" d="m1275.11,291.12v-37.33c0-2.27,1.84-4.1,4.1-4.1h112.64v-29.59h-112.64c-2.27,0-4.1-1.84-4.1-4.1v-31.78c0-2.27,1.84-4.1,4.1-4.1h117.03v-29.83h-135.71c-8.69,0-15.73,7.04-15.73,15.73v143.06c0,8.69,7.04,15.73,15.73,15.73h137.18v-29.59h-118.49c-2.27,0-4.1-1.84-4.1-4.1Z"/><g><rect class="cls-3" x="805" y="202.23" width="62.52" height="14.48"/><rect class="cls-11" x="805.31" y="227.1" width="62.52" height="14.49"/><rect class="cls-12" x="805.31" y="251.97" width="62.52" height="14.49"/><path class="cls-10" d="m947.85,201.52h-53.27c-3.99,0-7.24,3.25-7.24,7.24v51.32c0,3.99,3.25,7.24,7.24,7.24h53.27c3.99,0,7.24-3.25,7.24-7.24v-51.32c0-3.99-3.25-7.24-7.24-7.24Zm-46.02,51.32v-36.83h38.78v36.83h-38.78Z"/></g></svg>