<?xml version="1.0" encoding="utf-8"?>
<!-- Generator: Adobe Illustrator 26.3.1, SVG Export Plug-In . SVG Version: 6.00 Build 0)  -->
<svg version="1.1" id="Layer_1" xmlns="http://www.w3.org/2000/svg" xmlns:xlink="http://www.w3.org/1999/xlink" x="0px" y="0px"
	 viewBox="0 0 1204 444" style="enable-background:new 0 0 1204 444;" xml:space="preserve">
<style type="text/css">
	.st0{fill:#9B9B9B;}
	.st1{fill:#E93648;}
	.st2{font-family:'Helvetica';}
	.st3{font-size:46.6155px;}
	.st4{fill:#FFFFFF;}
	.st5{fill:#C9C9C9;}
	.st6{fill:none;stroke:#FFFFFF;stroke-width:9.7802;stroke-miterlimit:10;}
</style>
<g>
	<circle class="st0" cx="513" cy="139" r="48"/>
	<polygon class="st1" points="645.75,30.39 760.17,30.39 814.61,30.39 814.61,84.82 814.61,263.68 760.17,263.68 760.17,84.82 
		645.75,84.82 	"/>
	<polygon class="st1" points="1010.76,263.68 896.33,263.68 841.9,263.68 841.9,209.24 841.9,30.39 896.33,30.39 896.33,209.24 
		1010.76,209.24 	"/>
	<g>
		<polygon class="st1" points="343.54,267.36 402.87,267.36 279.29,30.39 155.71,267.36 215.04,267.36 279.29,144.15 		"/>
	</g>
	<path class="st1" d="M664.18,321.94l-66.34-92.9c12.23-11.55,22.25-25.64,29.08-41.8l-54.33-22.98
		c-10.18,24.06-33.64,39.61-59.76,39.61c-35.76,0-64.85-29.09-64.85-64.85c0-35.75,29.09-64.84,64.85-64.84
		c27.81,0,52.5,17.67,61.43,43.98l55.86-18.96C613.05,48.96,565.92,15.2,512.83,15.2C444.55,15.2,389,70.75,389,139.03
		c0,68.28,55.55,123.83,123.83,123.83c11.5,0,22.7-1.64,33.41-4.64l45.54,63.72H664.18z"/>
	<polygon class="st1" points="1185.29,30.39 1125.96,30.39 1061.71,153.6 997.46,30.39 938.13,30.39 1034.84,215.83 1034.85,215.83 
		1034.85,263.68 1088.58,263.68 1088.58,215.85 	"/>
	<text transform="matrix(1 0 0 1 1112.9302 267.3623)" class="st1 st2 st3">®</text>
	<polygon class="st1" points="214.61,84.82 245.85,30.39 84.57,30.39 30.14,30.39 30.14,84.82 30.14,263.68 84.57,263.68 
		84.57,175.26 174.31,175.26 199,123.12 84.57,123.12 84.57,84.82 	"/>
	<g>
		<polygon class="st4" points="505.32,162.82 485.72,145.23 493.28,136.81 505.19,147.5 536.15,118.7 543.85,126.98 		"/>
	</g>
</g>
<g>
	<g>
		<path class="st0" d="M780.54,424.37c-24.15,0-43.02-11.99-43.82-34.7h29.11c0.8,8.64,6.24,12.79,13.91,12.79
			c8,0,13.11-4,13.11-10.55c0-20.79-56.13-9.6-55.81-49.42c0-21.27,17.43-33.1,40.94-33.1c24.47,0,40.94,12.15,42.06,33.58h-29.59
			c-0.48-7.2-5.6-11.51-12.95-11.67c-6.56-0.16-11.51,3.2-11.51,10.24c0,19.51,55.5,10.71,55.5,48.3
			C821.48,408.7,806.77,424.37,780.54,424.37z"/>
		<path class="st0" d="M908.16,403.42h-41.9l-6.72,19.83h-28.63l40.62-112.27h31.67l40.62,112.27h-28.95L908.16,403.42z
			 M887.21,341.21l-13.75,41.1h27.67L887.21,341.21z"/>
		<path class="st0" d="M1007.96,309.7c26.71,0,46.86,15.03,53.25,39.34h-30.07c-4.64-9.6-13.11-14.39-23.51-14.39
			c-16.79,0-28.31,12.47-28.31,32.31c0,19.83,11.52,32.3,28.31,32.3c10.4,0,18.87-4.8,23.51-14.39h30.07
			c-6.4,24.31-26.55,39.18-53.25,39.18c-33.11,0-56.46-23.51-56.46-57.09C951.5,333.37,974.85,309.7,1007.96,309.7z"/>
		<path class="st0" d="M1147.9,377.03h-42.54v46.22h-27.35V310.98h27.35v43.98h42.54v-43.98h27.35v112.27h-27.35V377.03z"/>
	</g>
</g>
</svg>
